<svg width="22" height="22" viewBox="0 0 22 22" fill="none" xmlns="http://www.w3.org/2000/svg">
<path fill-rule="evenodd" clip-rule="evenodd" d="M4.31006 5.44C4.31006 3.40311 5.95537 1.75 8.00006 1.75C10.0353 1.75 11.6892 3.40339 11.6901 5.43847C11.681 7.42308 10.1309 9.03098 8.17706 9.11877C8.05885 9.1102 7.93355 9.1106 7.81494 9.11885C5.85913 9.03198 4.31006 7.42302 4.31006 5.44ZM8.00006 0.25C5.12474 0.25 2.81006 2.57689 2.81006 5.44C2.81006 8.24337 5.01965 10.526 7.80486 10.6196C7.83592 10.6206 7.86701 10.6197 7.89796 10.6169C7.96515 10.6108 8.03721 10.6115 8.08543 10.6163C8.1186 10.6196 8.15194 10.6207 8.18526 10.6196C10.971 10.5259 13.1784 8.24352 13.1901 5.44313L13.1901 5.44C13.1901 2.57579 10.8643 0.25 8.00006 0.25ZM15.41 2.25C14.9958 2.25 14.66 2.58579 14.66 3C14.66 3.41421 14.9958 3.75 15.41 3.75C16.9344 3.75 18.16 4.98282 18.16 6.5C18.16 7.9683 17.0068 9.169 15.5601 9.24831C15.4384 9.23847 15.315 9.2415 15.1972 9.25459C14.7855 9.30033 14.4889 9.67114 14.5346 10.0828C14.5804 10.4945 14.9512 10.7912 15.3629 10.7454C15.4014 10.7411 15.432 10.7423 15.447 10.7442C15.4872 10.7492 15.5276 10.751 15.5681 10.7495C17.8389 10.6645 19.66 8.79545 19.66 6.5C19.66 4.15718 17.7656 2.25 15.41 2.25ZM8.17247 11.4375C10.1007 11.4375 12.067 11.9214 13.5865 12.9363C14.9524 13.8454 15.735 15.1198 15.735 16.4912C15.735 17.8626 14.9525 19.1393 13.5872 20.0532L13.587 20.0533C12.0628 21.0732 10.0941 21.56 8.16497 21.56C6.23626 21.56 4.26788 21.0734 2.74379 20.0539C1.37768 19.1448 0.594971 17.8703 0.594971 16.4987C0.594971 15.1274 1.37741 13.8507 2.74276 12.9368L2.74551 12.9349L2.74551 12.9349C4.27395 11.9215 6.24403 11.4375 8.17247 11.4375ZM3.5758 14.1842C2.52216 14.89 2.09497 15.7429 2.09497 16.4987C2.09497 17.2544 2.52198 18.1047 3.5754 18.8056L3.57704 18.8067C4.80283 19.6268 6.46405 20.06 8.16497 20.06C9.86582 20.06 11.527 19.6269 12.7528 18.8068C13.8074 18.1007 14.235 17.2474 14.235 16.4912C14.235 15.7355 13.808 14.8853 12.7545 14.1844L12.7534 14.1837C11.533 13.3686 9.87427 12.9375 8.17247 12.9375C6.47154 12.9375 4.80724 13.3682 3.5758 14.1842ZM17.535 12.2684C17.1309 12.1773 16.7295 12.4311 16.6384 12.8351C16.5474 13.2392 16.8011 13.6406 17.2052 13.7317C17.8347 13.8735 18.399 14.1156 18.8449 14.4561L18.8449 14.4561L18.8501 14.46C19.4674 14.923 19.7201 15.487 19.7201 15.995C19.7201 16.503 19.4674 17.067 18.8501 17.53L18.8501 17.53L18.8433 17.5351C18.3855 17.8867 17.8134 18.1353 17.1871 18.2658C16.7816 18.3503 16.5214 18.7475 16.6059 19.153C16.6903 19.5585 17.0875 19.8187 17.4931 19.7342C18.3054 19.565 19.092 19.2344 19.7535 18.7275C20.694 18.0206 21.2201 17.0357 21.2201 15.995C21.2201 14.954 20.6937 13.9688 19.7527 13.262C19.0991 12.7636 18.3244 12.4463 17.535 12.2684Z" fill="black"/>
</svg>
