<svg width="22" height="22" viewBox="0 0 22 22" fill="none" xmlns="http://www.w3.org/2000/svg">
<path fill-rule="evenodd" clip-rule="evenodd" d="M11 8.75C9.75736 8.75 8.75 9.75736 8.75 11C8.75 12.2426 9.75736 13.25 11 13.25C12.2426 13.25 13.25 12.2426 13.25 11C13.25 9.75736 12.2426 8.75 11 8.75ZM7.25 11C7.25 8.92893 8.92893 7.25 11 7.25C13.0711 7.25 14.75 8.92893 14.75 11C14.75 13.0711 13.0711 14.75 11 14.75C8.92893 14.75 7.25 13.0711 7.25 11Z" fill="black"/>
<path fill-rule="evenodd" clip-rule="evenodd" d="M8.60347 2.77012C8.3358 2.32417 7.77209 2.18545 7.35347 2.4345L7.34256 2.44099L5.61251 3.4309C5.06514 3.74368 4.8763 4.45283 5.1894 4.99474L4.54 5.36995L5.18888 4.99385C5.72395 5.91698 5.86779 6.92876 5.38982 7.75817C4.91192 8.58747 3.96479 8.96995 2.9 8.96995C2.26678 8.96995 1.75 9.49159 1.75 10.1199V11.8799C1.75 12.5083 2.26678 13.0299 2.9 13.0299C3.96479 13.0299 4.91192 13.4124 5.38982 14.2417C5.86773 15.071 5.72398 16.0827 5.18909 17.0057C4.87642 17.5475 5.06491 18.2561 5.6121 18.5688L7.35352 19.5653C7.77214 19.8144 8.33578 19.6757 8.60345 19.2298L8.71093 19.0442C9.2458 18.1214 10.052 17.4925 11.0087 17.4925C11.9662 17.4925 12.77 18.1218 13.3 19.0457L13.3007 19.047L13.4065 19.2298C13.6742 19.6757 14.2379 19.8145 14.6565 19.5654L14.6674 19.5589L16.3975 18.569C16.9434 18.257 17.1351 17.5577 16.8198 17.0037C16.2858 16.0812 16.1426 15.0704 16.6202 14.2417C17.0981 13.4124 18.0452 13.0299 19.11 13.0299C19.7432 13.0299 20.26 12.5083 20.26 11.8799V10.1199C20.26 9.48673 19.7384 8.96995 19.11 8.96995C18.0452 8.96995 17.0981 8.58747 16.6202 7.75817C16.1423 6.92893 16.286 5.91737 16.8208 4.99439C17.1336 4.45252 16.9451 3.74385 16.3979 3.43113L14.6565 2.4346C14.2379 2.18554 13.6742 2.32417 13.4065 2.77013L13.2991 2.95573C12.7642 3.87854 11.958 4.50745 11.0012 4.50745C10.0439 4.50745 9.24021 3.87819 8.71021 2.95449L8.70933 2.95295L8.60347 2.77012ZM6.59249 1.14186C7.75192 0.456502 9.22257 0.876977 9.89456 2.00648L9.89912 2.01415L10.0091 2.20417L10.0107 2.20695C10.3807 2.85241 10.7666 3.00745 11.0012 3.00745C11.237 3.00745 11.6259 2.85109 12.0009 2.20417L12.1154 2.00645C12.7874 0.876944 14.2581 0.456497 15.4175 1.14187L17.1421 2.12877C18.4147 2.85598 18.8463 4.48707 18.1194 5.74516L18.1189 5.74605C17.7439 6.39292 17.8028 6.80614 17.9198 7.00923C18.0369 7.21243 18.3648 7.46995 19.11 7.46995C20.5616 7.46995 21.76 8.65317 21.76 10.1199V11.8799C21.76 13.3316 20.5768 14.5299 19.11 14.5299C18.3648 14.5299 18.0369 14.7875 17.9198 14.9907C17.8028 15.1938 17.7439 15.607 18.1189 16.2538L18.1212 16.2578C18.8444 17.5235 18.4157 19.1431 17.1425 19.8709L15.4174 20.8581C14.258 21.5434 12.7874 21.1229 12.1154 19.9934L12.1109 19.9858L12.0009 19.7957L11.9993 19.7929C11.6293 19.1475 11.2434 18.9925 11.0087 18.9925C10.773 18.9925 10.3841 19.1488 10.0091 19.7957L9.8946 19.9934C9.22263 21.1229 7.75199 21.5434 6.59257 20.8581L4.8679 19.8711C3.59558 19.1438 3.16378 17.5127 3.8906 16.2547L3.89112 16.2538C4.26606 15.607 4.20721 15.1938 4.09018 14.9907C3.97308 14.7875 3.64521 14.5299 2.9 14.5299C1.43322 14.5299 0.25 13.3316 0.25 11.8799V10.1199C0.25 8.6683 1.43322 7.46995 2.9 7.46995C3.64521 7.46995 3.97308 7.21243 4.09018 7.00923C4.20721 6.80614 4.26606 6.39292 3.89112 5.74605L3.8906 5.74516C3.16378 4.4872 3.59518 2.85633 4.86749 2.129L6.59249 1.14186Z" fill="black"/>
</svg>

